HIERARCHY
ROOT newVegas:Hips
{
	OFFSET 0.000000 96.479958 0.000000
	CHANNELS 6 Xposition Yposition Zposition Xrotation Yrotation Zrotation
	JOINT newVegas:Pelvis
	{
		OFFSET 0.000000 0.000000 0.000000
		CHANNELS 3 Xrotation Yrotation Zrotation
		JOINT newVegas:LeftUpLeg
		{
			OFFSET 18.735201 -5.666702 -4.541200
			CHANNELS 3 Xrotation Yrotation Zrotation
			JOINT newVegas:LeftLeg
			{
				OFFSET -0.021200 -31.938179 0.493100
				CHANNELS 3 Xrotation Yrotation Zrotation
				JOINT newVegas:LeftFoot
				{
					OFFSET 0.021200 -31.938179 -4.336299
					CHANNELS 3 Xrotation Yrotation Zrotation
					JOINT newVegas:LeftToeBase
					{
						OFFSET 0.943001 -26.722000 15.023500
						CHANNELS 3 Xrotation Yrotation Zrotation
						End Site
						{
							OFFSET 0.000000 30.670183 0.000000
						}
					}
				}
				JOINT newVegas:Left_PantLeg
				{
					OFFSET 0.663870 -9.044666 -1.108900
					CHANNELS 3 Xrotation Yrotation Zrotation
					End Site
					{
						OFFSET 1.415995 20.635357 0.000000
					}
				}
			}
		}
		JOINT newVegas:RightUpLeg
		{
			OFFSET -18.735201 -5.666702 -4.541200
			CHANNELS 3 Xrotation Yrotation Zrotation
			JOINT newVegas:RightLeg
			{
				OFFSET 0.018946 -31.938133 0.493100
				CHANNELS 3 Xrotation Yrotation Zrotation
				JOINT newVegas:RightFoot
				{
					OFFSET -0.018946 -31.938126 -4.336299
					CHANNELS 3 Xrotation Yrotation Zrotation
					JOINT newVegas:RightToeBase
					{
						OFFSET -0.943001 -26.722004 15.023500
						CHANNELS 3 Xrotation Yrotation Zrotation
						End Site
						{
							OFFSET 0.000000 30.670187 0.000000
						}
					}
				}
				JOINT newVegas:Right_PantLeg
				{
					OFFSET -0.661674 -9.044716 -1.108900
					CHANNELS 3 Xrotation Yrotation Zrotation
					End Site
					{
						OFFSET -1.415958 20.635269 0.000000
					}
				}
			}
		}
	}
	JOINT newVegas:Spine
	{
		OFFSET 0.000000 10.199997 -0.299500
		CHANNELS 3 Xrotation Yrotation Zrotation
		JOINT newVegas:Spine1
		{
			OFFSET 0.000000 11.900002 -1.516600
			CHANNELS 3 Xrotation Yrotation Zrotation
			JOINT newVegas:Spine2
			{
				OFFSET 0.000000 13.600006 -2.842500
				CHANNELS 3 Xrotation Yrotation Zrotation
				JOINT newVegas:Neck
				{
					OFFSET 0.000000 9.624100 -2.890100
					CHANNELS 3 Xrotation Yrotation Zrotation
					JOINT newVegas:Head
					{
						OFFSET 0.000000 14.068802 -1.351900
						CHANNELS 3 Xrotation Yrotation Zrotation
						JOINT newVegas:Hair_Back
						{
							OFFSET 0.000000 3.231903 -17.524799
							CHANNELS 3 Xrotation Yrotation Zrotation
							End Site
							{
								OFFSET 0.000000 19.849884 0.000000
							}
						}
						JOINT newVegas:Hair_Front
						{
							OFFSET 0.000000 31.260406 4.573800
							CHANNELS 3 Xrotation Yrotation Zrotation
							JOINT newVegas:Hair_Front1
							{
								OFFSET 0.000000 2.284103 11.993300
								CHANNELS 3 Xrotation Yrotation Zrotation
								JOINT newVegas:Hair_Front2
								{
									OFFSET 0.000000 2.284103 11.993300
									CHANNELS 3 Xrotation Yrotation Zrotation
									End Site
									{
										OFFSET 0.000000 12.208862 0.000000
									}
								}
							}
						}
						JOINT newVegas:Jowel
						{
							OFFSET 0.000000 -7.458206 6.864100
							CHANNELS 3 Xrotation Yrotation Zrotation
							End Site
							{
								OFFSET 0.000000 19.849884 0.000000
							}
						}
					}
				}
				JOINT newVegas:LeftShoulder
				{
					OFFSET 15.263000 10.923401 -0.547700
					CHANNELS 3 Xrotation Yrotation Zrotation
					JOINT newVegas:LeftArm
					{
						OFFSET 25.438599 -2.830597 -13.032500
						CHANNELS 3 Xrotation Yrotation Zrotation
						JOINT newVegas:LeftForeArm
						{
							OFFSET 29.960503 0.000000 0.000000
							CHANNELS 3 Xrotation Yrotation Zrotation
							JOINT newVegas:LeftHand
							{
								OFFSET 27.849251 0.000000 0.000000
								CHANNELS 3 Xrotation Yrotation Zrotation
								JOINT newVegas:LeftHandThumb1
								{
									OFFSET 4.487587 -3.305161 6.305391
									CHANNELS 3 Xrotation Yrotation Zrotation
									JOINT newVegas:LeftHandThumb2
									{
										OFFSET 5.480453 -3.164139 3.164143
										CHANNELS 3 Xrotation Yrotation Zrotation
										JOINT newVegas:LeftHandThumb3
										{
											OFFSET 5.159721 -2.978973 2.978967
											CHANNELS 3 Xrotation Yrotation Zrotation
											End Site
											{
												OFFSET 2.494507 5.926697 1.738678
											}
										}
									}
								}
								JOINT newVegas:LeftHandIndex1
								{
									OFFSET 18.578728 -0.527832 5.208049
									CHANNELS 3 Xrotation Yrotation Zrotation
									JOINT newVegas:LeftHandIndex2
									{
										OFFSET 3.192009 0.000000 0.000000
										CHANNELS 3 Xrotation Yrotation Zrotation
										JOINT newVegas:LeftHandIndex3
										{
											OFFSET 3.835129 0.000000 0.000000
											CHANNELS 3 Xrotation Yrotation Zrotation
											End Site
											{
												OFFSET -0.034599 3.816971 0.371180
											}
										}
									}
								}
								JOINT newVegas:LeftHandMiddle1
								{
									OFFSET 18.476105 0.000000 0.000000
									CHANNELS 3 Xrotation Yrotation Zrotation
									JOINT newVegas:LeftHandMiddle2
									{
										OFFSET 3.324875 0.000000 0.000000
										CHANNELS 3 Xrotation Yrotation Zrotation
										JOINT newVegas:LeftHandMiddle3
										{
											OFFSET 4.596550 0.000000 0.000000
											CHANNELS 3 Xrotation Yrotation Zrotation
											End Site
											{
												OFFSET 0.057701 4.578827 0.399218
											}
										}
									}
								}
								JOINT newVegas:LeftHandRing1
								{
									OFFSET 17.732719 0.121887 -4.201567
									CHANNELS 3 Xrotation Yrotation Zrotation
									JOINT newVegas:LeftHandRing2
									{
										OFFSET 2.733170 0.000000 0.000000
										CHANNELS 3 Xrotation Yrotation Zrotation
										JOINT newVegas:LeftHandRing3
										{
											OFFSET 3.178268 0.000000 0.000000
											CHANNELS 3 Xrotation Yrotation Zrotation
											End Site
											{
												OFFSET 0.119102 3.170624 0.185394
											}
										}
									}
								}
								JOINT newVegas:LeftHandPinky1
								{
									OFFSET 15.989624 -0.606689 -7.535461
									CHANNELS 3 Xrotation Yrotation Zrotation
									JOINT newVegas:LeftHandPinky2
									{
										OFFSET 2.538986 0.000000 0.000000
										CHANNELS 3 Xrotation Yrotation Zrotation
										JOINT newVegas:LeftHandPinky3
										{
											OFFSET 2.593102 0.000000 0.000000
											CHANNELS 3 Xrotation Yrotation Zrotation
											End Site
											{
												OFFSET -0.150902 2.584198 0.152708
											}
										}
									}
								}
							}
							JOINT newVegas:Left_Sleeve
							{
								OFFSET 0.267448 -0.649796 0.577675
								CHANNELS 3 Xrotation Yrotation Zrotation
								End Site
								{
									OFFSET 0.000000 15.991241 0.000000
								}
							}
							JOINT newVegas:Left_CapeC
							{
								OFFSET 15.715958 -8.608795 -6.935905
								CHANNELS 3 Xrotation Yrotation Zrotation
								JOINT newVegas:Left_CapeC1
								{
									OFFSET 0.000000 -8.688499 0.000000
									CHANNELS 3 Xrotation Yrotation Zrotation
									End Site
									{
										OFFSET 0.000000 8.688499 0.000000
									}
								}
							}
						}
						JOINT newVegas:Left_CapeB
						{
							OFFSET 26.118385 -8.608795 -7.079235
							CHANNELS 3 Xrotation Yrotation Zrotation
							JOINT newVegas:Left_CapeB1
							{
								OFFSET 0.000000 -8.688499 0.000000
								CHANNELS 3 Xrotation Yrotation Zrotation
								End Site
								{
									OFFSET 0.000000 8.688499 0.000000
								}
							}
						}
						JOINT newVegas:Left_CapeA
						{
							OFFSET 5.115639 -8.608795 -10.395809
							CHANNELS 3 Xrotation Yrotation Zrotation
							JOINT newVegas:Left_CapeA1
							{
								OFFSET 0.000000 -8.688499 0.000000
								CHANNELS 3 Xrotation Yrotation Zrotation
								End Site
								{
									OFFSET 0.000000 8.688499 0.000000
								}
							}
						}
					}
				}
				JOINT newVegas:RightShoulder
				{
					OFFSET -15.263000 10.923401 -0.547700
					CHANNELS 3 Xrotation Yrotation Zrotation
					JOINT newVegas:RightArm
					{
						OFFSET -25.438599 -2.830597 -13.032500
						CHANNELS 3 Xrotation Yrotation Zrotation
						JOINT newVegas:RightForeArm
						{
							OFFSET -29.960503 0.000000 0.000000
							CHANNELS 3 Xrotation Yrotation Zrotation
							JOINT newVegas:RightHand
							{
								OFFSET -27.849251 0.000000 0.000000
								CHANNELS 3 Xrotation Yrotation Zrotation
								JOINT newVegas:RightHandThumb1
								{
									OFFSET -4.487587 -3.305161 6.305391
									CHANNELS 3 Xrotation Yrotation Zrotation
									JOINT newVegas:RightHandThumb2
									{
										OFFSET -5.480453 -3.164139 3.164143
										CHANNELS 3 Xrotation Yrotation Zrotation
										JOINT newVegas:RightHandThumb3
										{
											OFFSET -5.159721 -2.978973 2.978967
											CHANNELS 3 Xrotation Yrotation Zrotation
											End Site
											{
												OFFSET -2.494507 5.926697 1.738678
											}
										}
									}
								}
								JOINT newVegas:RightHandIndex1
								{
									OFFSET -18.578728 -0.527832 5.208049
									CHANNELS 3 Xrotation Yrotation Zrotation
									JOINT newVegas:RightHandIndex2
									{
										OFFSET -3.192009 0.000000 0.000000
										CHANNELS 3 Xrotation Yrotation Zrotation
										JOINT newVegas:RightHandIndex3
										{
											OFFSET -3.835129 0.000000 0.000000
											CHANNELS 3 Xrotation Yrotation Zrotation
											End Site
											{
												OFFSET 0.034599 3.816971 0.371180
											}
										}
									}
								}
								JOINT newVegas:RightHandMiddle1
								{
									OFFSET -18.476105 0.000000 0.000000
									CHANNELS 3 Xrotation Yrotation Zrotation
									JOINT newVegas:RightHandMiddle2
									{
										OFFSET -3.324875 0.000000 0.000000
										CHANNELS 3 Xrotation Yrotation Zrotation
										JOINT newVegas:RightHandMiddle3
										{
											OFFSET -4.596550 0.000000 0.000000
											CHANNELS 3 Xrotation Yrotation Zrotation
											End Site
											{
												OFFSET -0.057701 4.578827 0.399218
											}
										}
									}
								}
								JOINT newVegas:RightHandRing1
								{
									OFFSET -17.732719 0.121887 -4.201567
									CHANNELS 3 Xrotation Yrotation Zrotation
									JOINT newVegas:RightHandRing2
									{
										OFFSET -2.733170 0.000000 0.000000
										CHANNELS 3 Xrotation Yrotation Zrotation
										JOINT newVegas:RightHandRing3
										{
											OFFSET -3.178268 0.000000 0.000000
											CHANNELS 3 Xrotation Yrotation Zrotation
											End Site
											{
												OFFSET -0.119102 3.170624 0.185394
											}
										}
									}
								}
								JOINT newVegas:RightHandPinky1
								{
									OFFSET -15.989624 -0.606689 -7.535461
									CHANNELS 3 Xrotation Yrotation Zrotation
									JOINT newVegas:RightHandPinky2
									{
										OFFSET -2.538986 0.000000 0.000000
										CHANNELS 3 Xrotation Yrotation Zrotation
										JOINT newVegas:RightHandPinky3
										{
											OFFSET -2.593102 0.000000 0.000000
											CHANNELS 3 Xrotation Yrotation Zrotation
											End Site
											{
												OFFSET 0.150902 2.584198 0.152708
											}
										}
									}
								}
							}
							JOINT newVegas:Right_CapeC
							{
								OFFSET -15.715958 -8.608795 -6.935905
								CHANNELS 3 Xrotation Yrotation Zrotation
								JOINT newVegas:Right_CapeC1
								{
									OFFSET 0.000000 -8.688499 0.000000
									CHANNELS 3 Xrotation Yrotation Zrotation
									End Site
									{
										OFFSET 0.000000 8.688499 0.000000
									}
								}
							}
							JOINT newVegas:Right_Sleeve
							{
								OFFSET -0.267448 -0.649994 0.577675
								CHANNELS 3 Xrotation Yrotation Zrotation
								End Site
								{
									OFFSET 0.000000 15.991302 0.000000
								}
							}
						}
						JOINT newVegas:Right_CapeA
						{
							OFFSET -5.115540 -8.608795 -10.395824
							CHANNELS 3 Xrotation Yrotation Zrotation
							JOINT newVegas:Right_CapeA1
							{
								OFFSET 0.000000 -8.688499 0.000000
								CHANNELS 3 Xrotation Yrotation Zrotation
								End Site
								{
									OFFSET 0.000000 8.688499 0.000000
								}
							}
						}
						JOINT newVegas:Right_CapeB
						{
							OFFSET -26.118187 -8.608795 -7.079266
							CHANNELS 3 Xrotation Yrotation Zrotation
							JOINT newVegas:Right_CapeB1
							{
								OFFSET 0.000000 -8.688499 0.000000
								CHANNELS 3 Xrotation Yrotation Zrotation
								End Site
								{
									OFFSET 0.000000 8.688499 0.000000
								}
							}
						}
					}
				}
				JOINT newVegas:Left_Collar
				{
					OFFSET 18.625099 8.655502 8.828100
					CHANNELS 3 Xrotation Yrotation Zrotation
					JOINT newVegas:Left_Collar1
					{
						OFFSET 14.783401 10.540405 -1.259500
						CHANNELS 3 Xrotation Yrotation Zrotation
						End Site
						{
							OFFSET 0.000000 18.199875 0.000000
						}
					}
				}
				JOINT newVegas:Collar_Back
				{
					OFFSET 0.000000 15.630707 -20.132601
					CHANNELS 3 Xrotation Yrotation Zrotation
					End Site
					{
						OFFSET 0.000000 22.523010 0.000000
					}
				}
				JOINT newVegas:Left_Peck
				{
					OFFSET 17.239599 -5.132599 25.482599
					CHANNELS 3 Xrotation Yrotation Zrotation
					End Site
					{
						OFFSET 0.000000 22.523010 0.000000
					}
				}
				JOINT newVegas:Right_Peck
				{
					OFFSET -17.239599 -5.132202 25.482599
					CHANNELS 3 Xrotation Yrotation Zrotation
					End Site
					{
						OFFSET 0.000000 22.523010 0.000000
					}
				}
				JOINT newVegas:Right_Collar
				{
					OFFSET -18.625099 8.655792 8.828100
					CHANNELS 3 Xrotation Yrotation Zrotation
					JOINT newVegas:Right_Collar1
					{
						OFFSET -14.783401 10.539993 -1.259500
						CHANNELS 3 Xrotation Yrotation Zrotation
						End Site
						{
							OFFSET 0.000000 18.199631 0.000000
						}
					}
				}
			}
		}
		JOINT newVegas:Belly
		{
			OFFSET 0.000000 -6.540398 9.014299
			CHANNELS 3 Xrotation Yrotation Zrotation
			End Site
			{
				OFFSET 0.000000 11.566666 0.000000
			}
		}
	}
	JOINT newVegas:ElvisFacialAnim_Joint
	{
		OFFSET 1.000000 -95.330101 -8.825800
		CHANNELS 3 Xrotation Yrotation Zrotation
		End Site
		{
			OFFSET 0.000000 35.315800 0.000000
		}
	}
}
MOTION
Frames: 4
Frame Time: 0.033333
-2.965593 46.138062 3.489716 -40.102370 -31.864813 -19.769081 -0.000001 0.000001 -0.000000 -88.480695 -14.564024 21.635893 123.400304 -11.948721 -0.861451 1.351457 -4.838354 -5.242635 0.000000 -0.000001 0.000000 -0.000000 0.000000 -0.000000 5.074437 44.090883 -31.863208 143.223685 44.542461 7.478449 -75.058779 -17.039165 13.215069 -0.000001 0.000001 -0.000001 -0.000001 0.000001 0.000001 58.792281 2.396678 2.142492 9.882987 0.744699 -4.519082 18.019006 -0.081824 -4.568515 -1.059332 2.936692 -0.264076 -1.059349 2.936706 -0.264093 0.000000 0.000000 -0.000002 -1.059337 2.936703 -0.264086 -1.059291 2.936683 -0.264084 -0.000000 0.000000 0.000001 0.000000 0.000000 -0.000000 -36.988971 -3.506032 0.429242 -74.930447 -20.408682 -70.875398 -0.000020 -47.608389 -0.000010 -121.755813 3.792506 21.601511 4.709223 9.560381 3.111986 19.473187 -1.474897 7.636921 -0.000000 0.000006 -0.000003 -0.583272 3.258440 -34.775826 2.947198 5.081798 -60.201731 -0.000001 -0.000001 -0.000000 1.220683 6.075218 -50.598106 3.596081 5.400453 -67.296228 -0.000001 0.000001 -0.000001 -0.079774 5.676718 -60.267492 4.108896 5.586539 -72.649020 -0.000002 -0.000001 0.000001 -6.572595 4.542402 -72.422927 3.137265 5.185582 -62.325722 -0.000002 -0.000003 0.000002 -0.000000 0.000000 0.000002 -0.000000 0.000000 0.000002 -0.000000 0.000001 0.000002 0.000001 0.000003 -0.000001 0.000001 0.000002 0.000000 0.000001 0.000003 -0.000001 -0.000001 0.000002 -0.000000 -42.125584 -9.326726 -6.999749 -51.056849 45.806763 93.451871 0.001113 103.394263 -0.001095 -38.100151 -24.203839 -24.768561 8.265927 -5.969509 10.635810 21.240905 -18.581502 -18.431083 0.000001 0.000001 0.000003 -0.717209 1.041864 11.584760 0.748148 -2.533496 32.898781 0.000000 0.000001 -0.000004 3.079230 -6.959570 50.682558 6.293277 -4.360891 110.588399 0.000000 -0.000000 0.000001 -3.467481 -2.522388 57.007972 5.448471 -4.589575 99.793203 -0.000000 0.000001 -0.000002 -4.183012 -3.213380 64.585838 4.077104 -4.620964 82.837436 -0.000000 0.000003 0.000001 -0.000002 -0.000001 0.000000 -0.000001 -0.000004 -0.000001 -0.000002 -0.000001 -0.000000 0.000001 -0.000003 -0.000000 0.000001 -0.000003 0.000001 0.000001 -0.000003 -0.000000 0.000001 -0.000003 0.000002 0.000001 0.000000 0.000000 0.000001 0.000000 0.000000 0.000001 0.000000 0.000000 0.000001 0.000000 0.000000 0.000001 0.000000 0.000000 0.000001 0.000000 0.000000 0.000001 0.000000 0.000000 -0.000001 0.000001 -0.000002 -0.000001 0.000001 -0.000000 
-2.966402 46.134537 3.490765 -40.095802 -31.864776 -19.768917 -0.000000 0.000000 -0.000001 -88.495722 -14.575176 21.635077 123.404470 -11.951867 -0.863615 1.358560 -4.840491 -5.243975 0.000000 -0.000000 0.000000 -0.000000 0.000002 0.000000 5.068272 44.082604 -31.855630 143.229668 44.548007 7.473666 -75.071777 -17.040137 13.203778 0.000000 0.000002 -0.000001 0.000002 -0.000000 -0.000003 58.795184 2.396225 2.142262 9.897737 0.744696 -4.519090 18.020650 -0.081844 -4.568608 -1.049677 2.942822 -0.265959 -1.049697 2.942820 -0.265968 -0.000000 -0.000001 -0.000000 -1.049605 2.942816 -0.265963 -1.049715 2.942849 -0.265964 -0.000000 0.000000 0.000001 -0.000000 -0.000001 -0.000001 -36.996461 -3.544965 0.417489 -74.895326 -20.378365 -70.837934 -0.000002 -47.660756 0.000009 -121.750403 3.776923 21.615423 4.709224 9.560376 3.111984 19.473185 -1.474894 7.636921 -0.000001 0.000004 -0.000002 -0.592095 3.245782 -34.777076 2.947149 5.081776 -60.201362 -0.000001 -0.000002 0.000001 1.223795 6.078376 -50.619362 3.597947 5.401248 -67.316200 0.000001 -0.000002 0.000003 -0.079033 5.678022 -60.279568 4.108235 5.586314 -72.642279 0.000001 0.000001 -0.000001 -6.571439 4.542805 -72.423043 3.137869 5.185890 -62.332443 0.000001 -0.000005 -0.000004 -0.000001 -0.000001 -0.000000 -0.000001 -0.000001 -0.000000 -0.000002 -0.000001 0.000000 -0.000002 -0.000001 -0.000002 -0.000002 -0.000002 0.000000 -0.000002 -0.000001 -0.000002 -0.000004 -0.000002 -0.000001 -42.126250 -9.323766 -6.997987 -51.056764 45.797696 93.445280 -0.000669 103.410403 0.000634 -38.079855 -24.239535 -24.755582 8.259923 -5.956589 10.634286 21.241827 -18.577280 -18.429934 -0.000002 -0.000002 -0.000001 -0.721075 1.053118 11.605902 0.748147 -2.533496 32.898781 -0.000000 -0.000000 0.000001 3.088909 -6.967657 50.676630 6.293674 -4.360747 110.593603 0.000000 -0.000000 0.000002 -3.466669 -2.522391 57.004270 5.447567 -4.589740 99.781769 -0.000000 -0.000001 0.000001 -4.180529 -3.216002 64.595373 4.076436 -4.620880 82.829267 -0.000002 0.000001 0.000002 0.000001 0.000005 -0.000001 0.000001 0.000001 -0.000001 0.000001 0.000005 -0.000003 0.000001 0.000002 0.000002 0.000001 0.000003 0.000003 0.000001 0.000002 0.000002 0.000001 0.000002 0.000005 -0.000000 0.000001 -0.000000 -0.000000 0.000001 -0.000000 -0.000000 0.000001 -0.000000 -0.000000 0.000001 -0.000000 -0.000000 0.000001 -0.000000 -0.000000 0.000001 -0.000000 -0.000000 0.000001 -0.000000 0.000001 0.000001 0.000001 -0.000000 0.000000 -0.000001 
-2.967995 46.130836 3.491554 -40.089857 -31.864690 -19.768587 -0.000000 -0.000000 -0.000000 -88.509683 -14.586962 21.634986 123.408172 -11.956264 -0.865808 1.365943 -4.842747 -5.246131 -0.000000 -0.000002 0.000000 -0.000000 -0.000001 -0.000000 5.080092 44.073315 -31.864584 143.229927 44.551869 7.478072 -75.089283 -17.028259 13.199351 -0.000001 0.000002 -0.000001 0.000001 0.000000 -0.000003 58.797854 2.395746 2.141975 9.911816 0.744697 -4.519088 18.020353 -0.081865 -4.568571 -1.039226 2.948732 -0.268272 -1.039266 2.948736 -0.268266 0.000001 -0.000000 -0.000001 -1.039212 2.948719 -0.268268 -1.039226 2.948765 -0.268277 -0.000003 -0.000000 -0.000000 0.000001 -0.000000 0.000001 -37.003588 -3.584928 0.402031 -74.860554 -20.347294 -70.800088 -0.000003 -47.710401 0.000005 -121.742630 3.764717 21.632246 4.709225 9.560380 3.111985 19.473192 -1.474895 7.636918 -0.000002 0.000004 -0.000001 -0.602245 3.231289 -34.779176 2.947365 5.081896 -60.203678 -0.000003 -0.000001 -0.000000 1.227772 6.082318 -50.643131 3.600504 5.402301 -67.343220 -0.000003 -0.000003 0.000004 -0.077353 5.680720 -60.303870 4.107260 5.586012 -72.632129 0.000001 -0.000001 0.000000 -6.570502 4.543158 -72.423194 3.139602 5.186807 -62.351602 -0.000003 -0.000003 -0.000000 -0.000000 0.000001 -0.000000 -0.000000 0.000001 -0.000000 -0.000001 0.000002 0.000000 0.000001 0.000000 0.000001 0.000001 0.000000 0.000000 0.000001 0.000000 0.000001 -0.000001 -0.000001 0.000001 -42.126783 -9.321412 -6.996792 -51.059144 45.790944 93.441462 0.001434 103.422786 -0.001420 -38.060966 -24.271081 -24.744554 8.269552 -5.934237 10.650506 21.239404 -18.578857 -18.428873 -0.000000 -0.000001 0.000001 -0.726001 1.063738 11.641906 0.748147 -2.533496 32.898781 0.000001 -0.000000 0.000003 3.097296 -6.974843 50.666907 6.294249 -4.360514 110.601199 0.000000 -0.000000 0.000001 -3.465927 -2.523033 57.005370 5.446735 -4.589875 99.771421 0.000000 -0.000001 -0.000001 -4.178806 -3.218726 64.608166 4.075612 -4.620776 82.819035 -0.000001 -0.000000 0.000001 0.000001 0.000000 -0.000001 0.000001 -0.000002 -0.000003 0.000001 -0.000000 -0.000001 0.000001 -0.000001 -0.000001 0.000001 0.000000 0.000000 0.000001 -0.000001 -0.000001 0.000001 0.000000 0.000002 -0.000000 -0.000001 -0.000001 -0.000000 -0.000001 -0.000001 -0.000000 -0.000001 -0.000001 -0.000000 -0.000001 -0.000001 -0.000000 -0.000001 -0.000001 -0.000000 -0.000001 -0.000001 -0.000000 -0.000001 -0.000001 0.000001 -0.000002 0.000000 -0.000000 -0.000000 -0.000000 
-2.969618 46.127861 3.492645 -40.084779 -31.865114 -19.768780 -0.000002 0.000000 -0.000001 -88.521683 -14.596942 21.638543 123.412188 -11.960816 -0.868047 1.371513 -4.845771 -5.245798 -0.000000 -0.000000 -0.000000 -0.000000 0.000001 -0.000000 5.082083 44.056267 -31.857696 143.235501 44.553556 7.472275 -75.111078 -17.026600 13.184975 0.000002 0.000003 -0.000001 0.000001 0.000001 -0.000002 58.800272 2.395329 2.141819 9.925009 0.744698 -4.519069 18.016543 -0.081876 -4.568330 -1.028180 2.954433 -0.270655 -1.028158 2.954424 -0.270658 -0.000000 -0.000002 -0.000000 -1.028223 2.954423 -0.270650 -1.028142 2.954432 -0.270663 -0.000000 0.000000 -0.000001 -0.000000 -0.000002 -0.000000 -37.010271 -3.625389 0.382164 -74.825788 -20.316415 -70.761320 -0.000003 -47.756847 -0.000014 -121.733287 3.754794 21.651940 4.709222 9.560372 3.111984 19.473192 -1.474893 7.636921 -0.000002 -0.000003 0.000000 -0.612266 3.216785 -34.779651 2.947565 5.082002 -60.206027 -0.000001 -0.000000 0.000000 1.232233 6.086549 -50.664393 3.602226 5.403030 -67.361539 0.000001 -0.000001 0.000001 -0.075911 5.682918 -60.323343 4.105855 5.585596 -72.617683 0.000003 -0.000001 0.000000 -6.569687 4.543418 -72.423310 3.141724 5.187900 -62.375009 -0.000001 -0.000005 -0.000003 -0.000002 0.000001 0.000001 -0.000002 0.000001 0.000001 -0.000002 0.000001 0.000001 0.000001 -0.000002 -0.000000 0.000000 -0.000003 0.000000 0.000001 -0.000002 -0.000000 -0.000001 -0.000003 0.000001 -42.127336 -9.320140 -6.996053 -51.063099 45.785620 93.439932 -0.000847 103.433058 0.000819 -38.047528 -24.302520 -24.736818 8.297683 -5.904001 10.678685 21.230984 -18.588947 -18.429570 0.000006 -0.000001 0.000001 -0.731280 1.072280 11.687741 0.748148 -2.533496 32.898781 -0.000001 -0.000000 0.000004 3.108446 -6.983792 50.669072 6.294669 -4.360337 110.606956 0.000000 0.000000 -0.000000 -3.465251 -2.524666 57.013833 5.446167 -4.589982 99.764332 0.000000 0.000001 -0.000000 -4.177558 -3.220737 64.617701 4.074976 -4.620698 82.811003 -0.000000 0.000000 -0.000003 -0.000002 0.000003 0.000000 -0.000001 0.000002 -0.000003 -0.000002 0.000003 -0.000000 -0.000001 0.000003 0.000001 -0.000001 0.000004 0.000002 -0.000001 0.000003 0.000001 -0.000001 0.000003 0.000003 -0.000001 0.000000 -0.000000 -0.000001 0.000000 -0.000000 -0.000001 0.000000 -0.000000 -0.000001 0.000000 -0.000000 -0.000001 0.000000 -0.000000 -0.000001 0.000000 -0.000000 -0.000001 0.000000 -0.000000 -0.000000 -0.000003 0.000002 -0.000002 0.000000 -0.000001 
